%TF.GenerationSoftware,KiCad,Pcbnew,8.0.6*%
%TF.CreationDate,2024-10-19T09:18:50-03:00*%
%TF.ProjectId,keychain-uv-index,6b657963-6861-4696-9e2d-75762d696e64,rev?*%
%TF.SameCoordinates,Original*%
%TF.FileFunction,Soldermask,Top*%
%TF.FilePolarity,Negative*%
%FSLAX46Y46*%
G04 Gerber Fmt 4.6, Leading zero omitted, Abs format (unit mm)*
G04 Created by KiCad (PCBNEW 8.0.6) date 2024-10-19 09:18:50*
%MOMM*%
%LPD*%
G01*
G04 APERTURE LIST*
G04 Aperture macros list*
%AMRoundRect*
0 Rectangle with rounded corners*
0 $1 Rounding radius*
0 $2 $3 $4 $5 $6 $7 $8 $9 X,Y pos of 4 corners*
0 Add a 4 corners polygon primitive as box body*
4,1,4,$2,$3,$4,$5,$6,$7,$8,$9,$2,$3,0*
0 Add four circle primitives for the rounded corners*
1,1,$1+$1,$2,$3*
1,1,$1+$1,$4,$5*
1,1,$1+$1,$6,$7*
1,1,$1+$1,$8,$9*
0 Add four rect primitives between the rounded corners*
20,1,$1+$1,$2,$3,$4,$5,0*
20,1,$1+$1,$4,$5,$6,$7,0*
20,1,$1+$1,$6,$7,$8,$9,0*
20,1,$1+$1,$8,$9,$2,$3,0*%
G04 Aperture macros list end*
%ADD10RoundRect,0.250000X0.250000X0.475000X-0.250000X0.475000X-0.250000X-0.475000X0.250000X-0.475000X0*%
%ADD11R,1.700000X0.650000*%
%ADD12RoundRect,0.250000X0.450000X-0.262500X0.450000X0.262500X-0.450000X0.262500X-0.450000X-0.262500X0*%
%ADD13R,1.700000X1.700000*%
%ADD14O,1.700000X1.700000*%
%ADD15R,1.050000X0.650000*%
%ADD16RoundRect,0.250000X-0.250000X-0.475000X0.250000X-0.475000X0.250000X0.475000X-0.250000X0.475000X0*%
%ADD17RoundRect,0.250000X0.262500X0.450000X-0.262500X0.450000X-0.262500X-0.450000X0.262500X-0.450000X0*%
%ADD18R,1.500000X2.600000*%
%ADD19RoundRect,0.250000X-0.450000X0.262500X-0.450000X-0.262500X0.450000X-0.262500X0.450000X0.262500X0*%
%ADD20R,1.600000X2.000000*%
%ADD21O,1.600000X2.000000*%
%ADD22RoundRect,0.243750X-0.456250X0.243750X-0.456250X-0.243750X0.456250X-0.243750X0.456250X0.243750X0*%
G04 APERTURE END LIST*
D10*
%TO.C,C1*%
X74150000Y-46200000D03*
X76050000Y-46200000D03*
%TD*%
D11*
%TO.C,U2*%
X69150000Y-58860000D03*
X69150000Y-60130000D03*
X69150000Y-61400000D03*
X69150000Y-62670000D03*
X76450000Y-62670000D03*
X76450000Y-61400000D03*
X76450000Y-60130000D03*
X76450000Y-58860000D03*
%TD*%
D12*
%TO.C,R4*%
X66150000Y-64212500D03*
X66150000Y-62387500D03*
%TD*%
%TO.C,R2*%
X76650000Y-56375000D03*
X76650000Y-54550000D03*
%TD*%
D13*
%TO.C,J1*%
X72450000Y-69800000D03*
D14*
X74990000Y-69800000D03*
X77530000Y-69800000D03*
X80070000Y-69800000D03*
X82610000Y-69800000D03*
X85150000Y-69800000D03*
%TD*%
D15*
%TO.C,SW1*%
X79625000Y-46725000D03*
X83775000Y-46725000D03*
X79625000Y-48875000D03*
X83775000Y-48875000D03*
%TD*%
D11*
%TO.C,U1*%
X76550000Y-48295000D03*
X76550000Y-49565000D03*
X76550000Y-50835000D03*
X76550000Y-52105000D03*
X69250000Y-52105000D03*
X69250000Y-50835000D03*
X69250000Y-49565000D03*
X69250000Y-48295000D03*
%TD*%
D10*
%TO.C,C2*%
X70200000Y-66250000D03*
X68300000Y-66250000D03*
%TD*%
D16*
%TO.C,C3*%
X69750000Y-56600000D03*
X71650000Y-56600000D03*
%TD*%
D17*
%TO.C,R1*%
X66262500Y-66200000D03*
X64437500Y-66200000D03*
%TD*%
D18*
%TO.C,D2*%
X68275000Y-69300000D03*
X65275000Y-69300000D03*
%TD*%
D19*
%TO.C,R3*%
X73750000Y-65087500D03*
X73750000Y-66912500D03*
%TD*%
D20*
%TO.C,BT1*%
X85300000Y-54800000D03*
D21*
X64800000Y-54800000D03*
%TD*%
D22*
%TO.C,D1*%
X74050000Y-54562500D03*
X74050000Y-56437500D03*
%TD*%
M02*
