%TF.GenerationSoftware,KiCad,Pcbnew,8.0.6*%
%TF.CreationDate,2024-10-19T09:18:50-03:00*%
%TF.ProjectId,keychain-uv-index,6b657963-6861-4696-9e2d-75762d696e64,rev?*%
%TF.SameCoordinates,Original*%
%TF.FileFunction,Copper,L1,Top*%
%TF.FilePolarity,Positive*%
%FSLAX46Y46*%
G04 Gerber Fmt 4.6, Leading zero omitted, Abs format (unit mm)*
G04 Created by KiCad (PCBNEW 8.0.6) date 2024-10-19 09:18:50*
%MOMM*%
%LPD*%
G01*
G04 APERTURE LIST*
G04 Aperture macros list*
%AMRoundRect*
0 Rectangle with rounded corners*
0 $1 Rounding radius*
0 $2 $3 $4 $5 $6 $7 $8 $9 X,Y pos of 4 corners*
0 Add a 4 corners polygon primitive as box body*
4,1,4,$2,$3,$4,$5,$6,$7,$8,$9,$2,$3,0*
0 Add four circle primitives for the rounded corners*
1,1,$1+$1,$2,$3*
1,1,$1+$1,$4,$5*
1,1,$1+$1,$6,$7*
1,1,$1+$1,$8,$9*
0 Add four rect primitives between the rounded corners*
20,1,$1+$1,$2,$3,$4,$5,0*
20,1,$1+$1,$4,$5,$6,$7,0*
20,1,$1+$1,$6,$7,$8,$9,0*
20,1,$1+$1,$8,$9,$2,$3,0*%
G04 Aperture macros list end*
%TA.AperFunction,SMDPad,CuDef*%
%ADD10RoundRect,0.250000X0.250000X0.475000X-0.250000X0.475000X-0.250000X-0.475000X0.250000X-0.475000X0*%
%TD*%
%TA.AperFunction,SMDPad,CuDef*%
%ADD11R,1.700000X0.650000*%
%TD*%
%TA.AperFunction,SMDPad,CuDef*%
%ADD12RoundRect,0.250000X0.450000X-0.262500X0.450000X0.262500X-0.450000X0.262500X-0.450000X-0.262500X0*%
%TD*%
%TA.AperFunction,ComponentPad*%
%ADD13R,1.700000X1.700000*%
%TD*%
%TA.AperFunction,ComponentPad*%
%ADD14O,1.700000X1.700000*%
%TD*%
%TA.AperFunction,SMDPad,CuDef*%
%ADD15R,1.050000X0.650000*%
%TD*%
%TA.AperFunction,SMDPad,CuDef*%
%ADD16RoundRect,0.250000X-0.250000X-0.475000X0.250000X-0.475000X0.250000X0.475000X-0.250000X0.475000X0*%
%TD*%
%TA.AperFunction,SMDPad,CuDef*%
%ADD17RoundRect,0.250000X0.262500X0.450000X-0.262500X0.450000X-0.262500X-0.450000X0.262500X-0.450000X0*%
%TD*%
%TA.AperFunction,SMDPad,CuDef*%
%ADD18R,1.500000X2.600000*%
%TD*%
%TA.AperFunction,SMDPad,CuDef*%
%ADD19RoundRect,0.250000X-0.450000X0.262500X-0.450000X-0.262500X0.450000X-0.262500X0.450000X0.262500X0*%
%TD*%
%TA.AperFunction,ComponentPad*%
%ADD20R,1.600000X2.000000*%
%TD*%
%TA.AperFunction,ComponentPad*%
%ADD21O,1.600000X2.000000*%
%TD*%
%TA.AperFunction,SMDPad,CuDef*%
%ADD22RoundRect,0.243750X-0.456250X0.243750X-0.456250X-0.243750X0.456250X-0.243750X0.456250X0.243750X0*%
%TD*%
%TA.AperFunction,ViaPad*%
%ADD23C,0.600000*%
%TD*%
%TA.AperFunction,Conductor*%
%ADD24C,0.200000*%
%TD*%
%TA.AperFunction,Conductor*%
%ADD25C,0.500000*%
%TD*%
%TA.AperFunction,Conductor*%
%ADD26C,0.750000*%
%TD*%
G04 APERTURE END LIST*
D10*
%TO.P,C1,2*%
%TO.N,GND*%
X74150000Y-46200000D03*
%TO.P,C1,1*%
%TO.N,VCC*%
X76050000Y-46200000D03*
%TD*%
D11*
%TO.P,U2,1*%
%TO.N,UVsignal*%
X69150000Y-58860000D03*
%TO.P,U2,2,-*%
%TO.N,Net-(D2-K)*%
X69150000Y-60130000D03*
%TO.P,U2,3,+*%
%TO.N,GND*%
X69150000Y-61400000D03*
%TO.P,U2,4,V-*%
X69150000Y-62670000D03*
%TO.P,U2,5*%
%TO.N,N/C*%
X76450000Y-62670000D03*
%TO.P,U2,6*%
X76450000Y-61400000D03*
%TO.P,U2,7*%
X76450000Y-60130000D03*
%TO.P,U2,8,V+*%
%TO.N,VCC*%
X76450000Y-58860000D03*
%TD*%
D12*
%TO.P,R4,1*%
%TO.N,Net-(C2-Pad2)*%
X66150000Y-64212500D03*
%TO.P,R4,2*%
%TO.N,GND*%
X66150000Y-62387500D03*
%TD*%
%TO.P,R2,1*%
%TO.N,Net-(D1-A)*%
X76650000Y-56375000D03*
%TO.P,R2,2*%
%TO.N,A*%
X76650000Y-54550000D03*
%TD*%
D13*
%TO.P,J1,1,Pin_1*%
%TO.N,VCC*%
X72450000Y-69800000D03*
D14*
%TO.P,J1,2,Pin_2*%
%TO.N,GND*%
X74990000Y-69800000D03*
%TO.P,J1,3,Pin_3*%
%TO.N,PB5-reset*%
X77530000Y-69800000D03*
%TO.P,J1,4,Pin_4*%
%TO.N,A*%
X80070000Y-69800000D03*
%TO.P,J1,5,Pin_5*%
%TO.N,B*%
X82610000Y-69800000D03*
%TO.P,J1,6,Pin_6*%
%TO.N,C*%
X85150000Y-69800000D03*
%TD*%
D15*
%TO.P,SW1,1,1*%
%TO.N,Net-(BT1-+)*%
X79625000Y-46725000D03*
X83775000Y-46725000D03*
%TO.P,SW1,2,2*%
%TO.N,VCC*%
X79625000Y-48875000D03*
X83775000Y-48875000D03*
%TD*%
D11*
%TO.P,U1,8,VCC*%
%TO.N,VCC*%
X76550000Y-48295000D03*
%TO.P,U1,7,PB2*%
%TO.N,C*%
X76550000Y-49565000D03*
%TO.P,U1,6,PB1*%
%TO.N,B*%
X76550000Y-50835000D03*
%TO.P,U1,5,AREF/PB0*%
%TO.N,A*%
X76550000Y-52105000D03*
%TO.P,U1,4,GND*%
%TO.N,GND*%
X69250000Y-52105000D03*
%TO.P,U1,3,XTAL2/PB4*%
%TO.N,unconnected-(U1-XTAL2{slash}PB4-Pad3)*%
X69250000Y-50835000D03*
%TO.P,U1,2,XTAL1/PB3*%
%TO.N,UVsignal*%
X69250000Y-49565000D03*
%TO.P,U1,1,~{RESET}/PB5*%
%TO.N,PB5-reset*%
X69250000Y-48295000D03*
%TD*%
D10*
%TO.P,C2,1*%
%TO.N,Net-(D2-K)*%
X70200000Y-66250000D03*
%TO.P,C2,2*%
%TO.N,Net-(C2-Pad2)*%
X68300000Y-66250000D03*
%TD*%
D16*
%TO.P,C3,1*%
%TO.N,GND*%
X69750000Y-56600000D03*
%TO.P,C3,2*%
%TO.N,VCC*%
X71650000Y-56600000D03*
%TD*%
D17*
%TO.P,R1,1*%
%TO.N,Net-(C2-Pad2)*%
X66262500Y-66200000D03*
%TO.P,R1,2*%
%TO.N,UVsignal*%
X64437500Y-66200000D03*
%TD*%
D18*
%TO.P,D2,1,K*%
%TO.N,Net-(D2-K)*%
X68275000Y-69300000D03*
%TO.P,D2,2,A*%
%TO.N,GND*%
X65275000Y-69300000D03*
%TD*%
D19*
%TO.P,R3,1*%
%TO.N,Net-(D2-K)*%
X73750000Y-65087500D03*
%TO.P,R3,2*%
%TO.N,Net-(C2-Pad2)*%
X73750000Y-66912500D03*
%TD*%
D20*
%TO.P,BT1,1,+*%
%TO.N,Net-(BT1-+)*%
X85300000Y-54800000D03*
D21*
%TO.P,BT1,2,-*%
%TO.N,GND*%
X64800000Y-54800000D03*
%TD*%
D22*
%TO.P,D1,1,K*%
%TO.N,GND*%
X74050000Y-54562500D03*
%TO.P,D1,2,A*%
%TO.N,Net-(D1-A)*%
X74050000Y-56437500D03*
%TD*%
D23*
%TO.N,PB5-reset*%
X76650000Y-65900000D03*
%TO.N,Net-(C2-Pad2)*%
X67300000Y-66250000D03*
X72500000Y-66900000D03*
%TO.N,GND*%
X67400000Y-62670000D03*
X64350000Y-69300000D03*
X68850000Y-56600000D03*
X73000000Y-54550000D03*
X67900000Y-52100000D03*
X72950000Y-46200000D03*
%TD*%
D24*
%TO.N,C*%
X85150000Y-57640000D02*
X85150000Y-69800000D01*
X77075000Y-49565000D02*
X85150000Y-57640000D01*
X76550000Y-49565000D02*
X77075000Y-49565000D01*
%TO.N,B*%
X82610000Y-56370000D02*
X82610000Y-69800000D01*
X77075000Y-50835000D02*
X82610000Y-56370000D01*
X76550000Y-50835000D02*
X77075000Y-50835000D01*
%TO.N,A*%
X80550000Y-69320000D02*
X80070000Y-69800000D01*
X80550000Y-56105000D02*
X80550000Y-69320000D01*
X76550000Y-52105000D02*
X80550000Y-56105000D01*
%TO.N,PB5-reset*%
X70850000Y-49390000D02*
X70850000Y-60100000D01*
X69755000Y-48295000D02*
X70850000Y-49390000D01*
X70850000Y-60100000D02*
X76650000Y-65900000D01*
X69250000Y-48295000D02*
X69755000Y-48295000D01*
%TO.N,A*%
X76650000Y-54550000D02*
X76650000Y-52205000D01*
X76650000Y-52205000D02*
X76550000Y-52105000D01*
%TO.N,Net-(D1-A)*%
X76587500Y-56437500D02*
X76650000Y-56375000D01*
X74050000Y-56437500D02*
X76587500Y-56437500D01*
%TO.N,Net-(C2-Pad2)*%
X67300000Y-66250000D02*
X66312500Y-66250000D01*
X72512500Y-66912500D02*
X72500000Y-66900000D01*
X73750000Y-66912500D02*
X72512500Y-66912500D01*
X66312500Y-66250000D02*
X66262500Y-66200000D01*
X68300000Y-66250000D02*
X67300000Y-66250000D01*
X66262500Y-64325000D02*
X66150000Y-64212500D01*
X66262500Y-66200000D02*
X66262500Y-64325000D01*
%TO.N,Net-(D2-K)*%
X69675000Y-60130000D02*
X71800000Y-62255000D01*
X71800000Y-65087500D02*
X71362500Y-65087500D01*
X69150000Y-60130000D02*
X69675000Y-60130000D01*
X73750000Y-65087500D02*
X71800000Y-65087500D01*
X71800000Y-62255000D02*
X71800000Y-65087500D01*
X71362500Y-65087500D02*
X70200000Y-66250000D01*
X70200000Y-67375000D02*
X70200000Y-66250000D01*
X68275000Y-69300000D02*
X70200000Y-67375000D01*
%TO.N,GND*%
X66550000Y-67550000D02*
X65275000Y-68825000D01*
X68800000Y-67550000D02*
X66550000Y-67550000D01*
X69300000Y-67050000D02*
X68800000Y-67550000D01*
X69350000Y-67050000D02*
X69300000Y-67050000D01*
X69350000Y-64450000D02*
X69350000Y-67050000D01*
X65275000Y-68825000D02*
X65275000Y-69300000D01*
X70500000Y-63300000D02*
X69350000Y-64450000D01*
X70050000Y-61400000D02*
X70500000Y-61850000D01*
X69150000Y-61400000D02*
X70050000Y-61400000D01*
X70500000Y-61850000D02*
X70500000Y-63300000D01*
%TO.N,UVsignal*%
X64437500Y-61112500D02*
X64437500Y-66200000D01*
X66690000Y-58860000D02*
X64437500Y-61112500D01*
X67760000Y-58860000D02*
X66690000Y-58860000D01*
X68035000Y-49565000D02*
X69250000Y-49565000D01*
X66750000Y-57850000D02*
X66750000Y-50850000D01*
X67760000Y-58860000D02*
X66750000Y-57850000D01*
X66750000Y-50850000D02*
X68035000Y-49565000D01*
X69150000Y-58860000D02*
X67760000Y-58860000D01*
D25*
%TO.N,GND*%
X67400000Y-62670000D02*
X69150000Y-62670000D01*
X67320000Y-62670000D02*
X67400000Y-62670000D01*
X67037500Y-62387500D02*
X67320000Y-62670000D01*
X66150000Y-62387500D02*
X67037500Y-62387500D01*
X65275000Y-69300000D02*
X64350000Y-69300000D01*
X69750000Y-56600000D02*
X68850000Y-56600000D01*
X73012500Y-54562500D02*
X73000000Y-54550000D01*
X74050000Y-54562500D02*
X73012500Y-54562500D01*
X69250000Y-52105000D02*
X68150000Y-52105000D01*
X67905000Y-52105000D02*
X67900000Y-52100000D01*
X74150000Y-46200000D02*
X72950000Y-46200000D01*
%TO.N,VCC*%
X77800000Y-58860000D02*
X76450000Y-58860000D01*
X80000000Y-63950000D02*
X80000000Y-61060000D01*
X76075000Y-67875000D02*
X80000000Y-63950000D01*
X74375000Y-67875000D02*
X76075000Y-67875000D01*
X72450000Y-69800000D02*
X74375000Y-67875000D01*
X80000000Y-61060000D02*
X77800000Y-58860000D01*
X73910000Y-58860000D02*
X76450000Y-58860000D01*
X71650000Y-56600000D02*
X73910000Y-58860000D01*
X75200000Y-48295000D02*
X76550000Y-48295000D01*
X71650000Y-51845000D02*
X75200000Y-48295000D01*
X71650000Y-56600000D02*
X71650000Y-51845000D01*
D26*
X76050000Y-47795000D02*
X76550000Y-48295000D01*
X76050000Y-46200000D02*
X76050000Y-47795000D01*
X78150000Y-46450000D02*
X77900000Y-46200000D01*
X78150000Y-47400000D02*
X78150000Y-46450000D01*
X79625000Y-48875000D02*
X78150000Y-47400000D01*
X77900000Y-46200000D02*
X76050000Y-46200000D01*
%TO.N,Net-(BT1-+)*%
X83775000Y-46725000D02*
X79625000Y-46725000D01*
X85300000Y-54800000D02*
X85300000Y-48250000D01*
X85300000Y-48250000D02*
X83775000Y-46725000D01*
%TO.N,VCC*%
X79625000Y-48875000D02*
X83775000Y-48875000D01*
%TD*%
M02*
