%TF.GenerationSoftware,KiCad,Pcbnew,8.0.6*%
%TF.CreationDate,2024-10-19T09:18:50-03:00*%
%TF.ProjectId,keychain-uv-index,6b657963-6861-4696-9e2d-75762d696e64,rev?*%
%TF.SameCoordinates,Original*%
%TF.FileFunction,Legend,Bot*%
%TF.FilePolarity,Positive*%
%FSLAX46Y46*%
G04 Gerber Fmt 4.6, Leading zero omitted, Abs format (unit mm)*
G04 Created by KiCad (PCBNEW 8.0.6) date 2024-10-19 09:18:50*
%MOMM*%
%LPD*%
G01*
G04 APERTURE LIST*
%ADD10C,0.150000*%
%ADD11C,0.120000*%
G04 APERTURE END LIST*
D10*
G36*
X76455591Y-68237500D02*
G01*
X76455591Y-66967437D01*
X75606542Y-66967437D01*
X75606542Y-67113982D01*
X76289200Y-67113982D01*
X76289200Y-67514541D01*
X75698438Y-67514541D01*
X75698438Y-67661086D01*
X76289200Y-67661086D01*
X76289200Y-68237500D01*
X76455591Y-68237500D01*
G37*
G36*
X75417254Y-68237500D02*
G01*
X75417254Y-67319146D01*
X75278035Y-67319146D01*
X75278035Y-67459891D01*
X75245638Y-67405169D01*
X75205929Y-67353554D01*
X75180033Y-67330748D01*
X75123147Y-67304746D01*
X75080504Y-67299607D01*
X75016597Y-67307870D01*
X74956892Y-67330167D01*
X74921746Y-67349677D01*
X74974869Y-67494085D01*
X75031655Y-67469127D01*
X75088442Y-67460807D01*
X75150489Y-67474087D01*
X75179422Y-67491643D01*
X75220733Y-67539108D01*
X75236819Y-67576517D01*
X75252633Y-67640760D01*
X75260717Y-67703496D01*
X75262770Y-67757562D01*
X75262770Y-68237500D01*
X75417254Y-68237500D01*
G37*
G36*
X74831987Y-67143292D02*
G01*
X74831987Y-66967437D01*
X74677503Y-66967437D01*
X74677503Y-67143292D01*
X74831987Y-67143292D01*
G37*
G36*
X74831987Y-68237500D02*
G01*
X74831987Y-67319146D01*
X74677503Y-67319146D01*
X74677503Y-68237500D01*
X74831987Y-68237500D01*
G37*
G36*
X74107196Y-68095839D02*
G01*
X74084909Y-68237500D01*
X74146733Y-68252154D01*
X74201535Y-68257039D01*
X74263751Y-68252605D01*
X74323171Y-68234974D01*
X74332205Y-68230172D01*
X74379479Y-68189648D01*
X74397540Y-68159036D01*
X74410907Y-68096421D01*
X74415272Y-68030900D01*
X74416163Y-67973717D01*
X74416163Y-67441268D01*
X74529736Y-67441268D01*
X74529736Y-67319146D01*
X74416163Y-67319146D01*
X74416163Y-67097496D01*
X74262595Y-67006516D01*
X74262595Y-67319146D01*
X74107196Y-67319146D01*
X74107196Y-67441268D01*
X74262595Y-67441268D01*
X74262595Y-67986235D01*
X74259797Y-68049607D01*
X74254658Y-68073246D01*
X74228096Y-68104082D01*
X74174973Y-68115378D01*
X74114951Y-68099331D01*
X74107196Y-68095839D01*
G37*
G36*
X74040029Y-68237500D02*
G01*
X74040029Y-68113241D01*
X73459647Y-67440963D01*
X73524876Y-67443917D01*
X73589698Y-67445742D01*
X73633975Y-67446153D01*
X74005835Y-67446153D01*
X74005835Y-67319146D01*
X73260589Y-67319146D01*
X73260589Y-67421423D01*
X73754265Y-68006385D01*
X73849520Y-68113241D01*
X73785895Y-68109216D01*
X73724775Y-68106682D01*
X73660435Y-68105616D01*
X73654736Y-68105608D01*
X73233112Y-68105608D01*
X73233112Y-68237500D01*
X74040029Y-68237500D01*
G37*
G36*
X72733169Y-67300105D02*
G01*
X72799905Y-67307583D01*
X72861683Y-67324034D01*
X72918501Y-67349457D01*
X72970361Y-67383854D01*
X73017262Y-67427224D01*
X73051388Y-67469631D01*
X73084705Y-67527190D01*
X73109692Y-67592027D01*
X73124152Y-67651616D01*
X73132828Y-67716259D01*
X73135720Y-67785956D01*
X73134690Y-67826984D01*
X73128393Y-67891476D01*
X73113280Y-67962452D01*
X73089924Y-68026430D01*
X73058326Y-68083409D01*
X73018483Y-68133391D01*
X73003506Y-68148364D01*
X72954694Y-68187487D01*
X72900065Y-68217916D01*
X72839618Y-68239651D01*
X72773355Y-68252692D01*
X72701273Y-68257039D01*
X72681649Y-68256738D01*
X72616440Y-68250953D01*
X72556635Y-68237805D01*
X72494907Y-68213762D01*
X72440239Y-68180102D01*
X72433909Y-68175233D01*
X72387804Y-68131899D01*
X72349750Y-68080780D01*
X72319749Y-68021875D01*
X72300104Y-67963948D01*
X72460083Y-67944408D01*
X72476642Y-67984356D01*
X72510602Y-68041078D01*
X72555338Y-68085764D01*
X72574737Y-68098517D01*
X72635478Y-68122727D01*
X72700357Y-68130033D01*
X72714483Y-68129729D01*
X72780714Y-68119085D01*
X72839610Y-68093235D01*
X72891172Y-68052180D01*
X72925099Y-68008808D01*
X72953140Y-67949751D01*
X72969063Y-67888132D01*
X72976046Y-67827172D01*
X72295830Y-67827172D01*
X72295219Y-67785040D01*
X72297032Y-67728954D01*
X72300266Y-67700165D01*
X72458251Y-67700165D01*
X72967498Y-67700165D01*
X72965443Y-67677250D01*
X72952485Y-67613783D01*
X72926135Y-67552556D01*
X72887203Y-67501107D01*
X72882628Y-67496524D01*
X72833243Y-67458695D01*
X72771275Y-67433888D01*
X72707990Y-67426613D01*
X72679286Y-67428073D01*
X72619692Y-67442032D01*
X72561577Y-67474876D01*
X72516564Y-67520036D01*
X72485896Y-67573417D01*
X72467061Y-67637284D01*
X72458251Y-67700165D01*
X72300266Y-67700165D01*
X72304396Y-67663396D01*
X72317425Y-67602891D01*
X72340538Y-67536957D01*
X72371808Y-67478299D01*
X72411235Y-67426919D01*
X72456987Y-67383653D01*
X72516334Y-67344489D01*
X72582109Y-67317510D01*
X72643604Y-67304083D01*
X72709822Y-67299607D01*
X72733169Y-67300105D01*
G37*
G36*
X72110816Y-68237500D02*
G01*
X72110816Y-67319146D01*
X71971903Y-67319146D01*
X71971903Y-67447984D01*
X71931091Y-67397559D01*
X71883990Y-67357567D01*
X71821089Y-67324095D01*
X71760359Y-67306707D01*
X71693340Y-67299752D01*
X71681559Y-67299607D01*
X71616800Y-67304545D01*
X71556475Y-67319359D01*
X71530129Y-67329527D01*
X71476208Y-67359062D01*
X71431042Y-67401690D01*
X71426631Y-67407684D01*
X71395834Y-67464107D01*
X71378393Y-67522479D01*
X71371723Y-67586570D01*
X71369919Y-67653911D01*
X71369844Y-67673604D01*
X71369844Y-68237500D01*
X71524328Y-68237500D01*
X71524328Y-67677573D01*
X71526861Y-67612915D01*
X71537151Y-67551172D01*
X71542341Y-67535301D01*
X71575829Y-67483662D01*
X71606454Y-67459891D01*
X71663094Y-67436933D01*
X71714227Y-67431498D01*
X71778848Y-67438966D01*
X71837121Y-67461369D01*
X71884586Y-67494696D01*
X71922421Y-67545316D01*
X71944491Y-67609890D01*
X71953810Y-67672570D01*
X71956332Y-67734970D01*
X71956332Y-68237500D01*
X72110816Y-68237500D01*
G37*
G36*
X71124685Y-68237500D02*
G01*
X71124685Y-66967437D01*
X70957990Y-66967437D01*
X70957990Y-68090954D01*
X70338224Y-68090954D01*
X70338224Y-68237500D01*
X71124685Y-68237500D01*
G37*
G36*
X69793222Y-67299730D02*
G01*
X69856267Y-67303323D01*
X69921049Y-67313150D01*
X69985903Y-67331053D01*
X70022904Y-67345963D01*
X70077022Y-67377505D01*
X70122374Y-67420202D01*
X70146744Y-67455533D01*
X70172776Y-67511583D01*
X70190151Y-67571938D01*
X70039026Y-67592698D01*
X70032348Y-67570373D01*
X70004844Y-67509940D01*
X69962090Y-67463250D01*
X69924076Y-67443930D01*
X69863740Y-67430191D01*
X69801195Y-67426613D01*
X69739985Y-67430743D01*
X69677570Y-67447007D01*
X69625034Y-67478820D01*
X69612457Y-67492191D01*
X69587515Y-67548491D01*
X69581376Y-67611017D01*
X69581987Y-67651317D01*
X69593439Y-67655176D01*
X69654509Y-67671716D01*
X69721890Y-67685283D01*
X69790961Y-67696277D01*
X69857676Y-67705050D01*
X69868981Y-67706466D01*
X69933632Y-67715842D01*
X69995062Y-67728558D01*
X70050415Y-67748496D01*
X70106498Y-67779849D01*
X70150996Y-67819081D01*
X70186182Y-67869609D01*
X70188061Y-67873112D01*
X70210004Y-67932332D01*
X70216713Y-67993257D01*
X70216398Y-68007521D01*
X70205378Y-68074014D01*
X70178617Y-68132457D01*
X70136113Y-68182850D01*
X70091328Y-68215308D01*
X70030591Y-68240738D01*
X69967398Y-68253489D01*
X69904998Y-68257039D01*
X69860233Y-68255131D01*
X69795804Y-68245113D01*
X69734638Y-68226509D01*
X69724654Y-68222523D01*
X69668887Y-68194548D01*
X69616938Y-68160225D01*
X69569164Y-68122095D01*
X69559956Y-68176642D01*
X69538328Y-68237500D01*
X69376823Y-68237500D01*
X69400074Y-68186977D01*
X69416207Y-68127285D01*
X69418497Y-68110446D01*
X69422885Y-68046558D01*
X69424822Y-67983317D01*
X69425738Y-67916971D01*
X69425976Y-67853122D01*
X69425976Y-67830835D01*
X69581987Y-67830835D01*
X69582598Y-67861941D01*
X69589052Y-67926498D01*
X69607021Y-67987151D01*
X69618132Y-68007909D01*
X69658838Y-68058499D01*
X69709298Y-68095533D01*
X69740583Y-68110879D01*
X69803799Y-68129379D01*
X69868056Y-68134918D01*
X69889900Y-68134264D01*
X69951600Y-68123113D01*
X70005137Y-68093091D01*
X70038666Y-68049250D01*
X70051849Y-67988372D01*
X70051097Y-67973184D01*
X70030478Y-67913572D01*
X70020147Y-67899654D01*
X69969417Y-67862587D01*
X69958626Y-67858289D01*
X69898100Y-67842146D01*
X69834473Y-67831140D01*
X69764893Y-67820240D01*
X69703348Y-67808375D01*
X69642851Y-67793635D01*
X69581987Y-67773438D01*
X69581987Y-67830835D01*
X69425976Y-67830835D01*
X69425976Y-67645821D01*
X69426006Y-67633133D01*
X69427437Y-67567474D01*
X69433609Y-67502634D01*
X69449604Y-67450800D01*
X69481847Y-67396693D01*
X69484022Y-67394093D01*
X69532583Y-67354179D01*
X69589009Y-67327390D01*
X69593612Y-67325680D01*
X69655500Y-67309401D01*
X69716453Y-67301805D01*
X69778602Y-67299607D01*
X69793222Y-67299730D01*
G37*
G36*
X69191809Y-68237500D02*
G01*
X69048316Y-68237500D01*
X69048316Y-68122400D01*
X69024259Y-68153956D01*
X68976948Y-68199055D01*
X68923004Y-68231268D01*
X68862428Y-68250596D01*
X68795219Y-68257039D01*
X68745603Y-68253901D01*
X68679972Y-68238964D01*
X68618811Y-68211726D01*
X68562121Y-68172187D01*
X68517088Y-68128506D01*
X68483665Y-68085731D01*
X68451036Y-68027513D01*
X68426564Y-67961782D01*
X68412402Y-67901267D01*
X68403905Y-67835535D01*
X68401584Y-67777407D01*
X68558914Y-67777407D01*
X68558987Y-67788294D01*
X68563532Y-67859744D01*
X68575149Y-67922866D01*
X68597083Y-67984809D01*
X68632798Y-68041495D01*
X68642141Y-68052216D01*
X68692074Y-68095447D01*
X68747375Y-68121386D01*
X68808042Y-68130033D01*
X68852940Y-68125814D01*
X68913484Y-68103669D01*
X68965865Y-68062541D01*
X69005573Y-68010048D01*
X69025075Y-67967535D01*
X69040354Y-67906022D01*
X69048015Y-67839180D01*
X69050148Y-67771301D01*
X69050076Y-67760902D01*
X69045530Y-67692437D01*
X69033914Y-67631540D01*
X69011979Y-67571209D01*
X68976264Y-67515151D01*
X68966922Y-67504430D01*
X68916988Y-67461198D01*
X68861687Y-67435260D01*
X68801020Y-67426613D01*
X68735464Y-67436715D01*
X68676906Y-67467018D01*
X68629745Y-67512098D01*
X68621168Y-67523152D01*
X68589418Y-67582017D01*
X68570604Y-67646870D01*
X68561404Y-67713290D01*
X68558914Y-67777407D01*
X68401584Y-67777407D01*
X68401072Y-67764584D01*
X68403756Y-67703762D01*
X68412906Y-67639613D01*
X68428550Y-67578349D01*
X68441579Y-67541375D01*
X68468606Y-67483701D01*
X68504570Y-67429361D01*
X68523708Y-67407211D01*
X68571579Y-67365921D01*
X68628218Y-67333801D01*
X68661500Y-67320477D01*
X68725558Y-67304415D01*
X68787281Y-67299607D01*
X68815314Y-67300686D01*
X68877030Y-67311593D01*
X68941230Y-67338440D01*
X68991863Y-67374517D01*
X69037325Y-67422339D01*
X69037325Y-66967437D01*
X69191809Y-66967437D01*
X69191809Y-68237500D01*
G37*
G36*
X68173927Y-68237500D02*
G01*
X68173927Y-68061645D01*
X67997766Y-68061645D01*
X67997766Y-68237500D01*
X68173927Y-68237500D01*
G37*
G36*
X67731542Y-68237500D02*
G01*
X67731542Y-67319146D01*
X67592629Y-67319146D01*
X67592629Y-67447984D01*
X67551817Y-67397559D01*
X67504715Y-67357567D01*
X67441814Y-67324095D01*
X67381085Y-67306707D01*
X67314066Y-67299752D01*
X67302285Y-67299607D01*
X67237526Y-67304545D01*
X67177201Y-67319359D01*
X67150854Y-67329527D01*
X67096934Y-67359062D01*
X67051768Y-67401690D01*
X67047356Y-67407684D01*
X67016560Y-67464107D01*
X66999118Y-67522479D01*
X66992448Y-67586570D01*
X66990645Y-67653911D01*
X66990570Y-67673604D01*
X66990570Y-68237500D01*
X67145054Y-68237500D01*
X67145054Y-67677573D01*
X67147587Y-67612915D01*
X67157877Y-67551172D01*
X67163066Y-67535301D01*
X67196554Y-67483662D01*
X67227180Y-67459891D01*
X67283820Y-67436933D01*
X67334952Y-67431498D01*
X67399574Y-67438966D01*
X67457847Y-67461369D01*
X67505312Y-67494696D01*
X67543147Y-67545316D01*
X67565217Y-67609890D01*
X67574536Y-67672570D01*
X67577058Y-67734970D01*
X67577058Y-68237500D01*
X67731542Y-68237500D01*
G37*
G36*
X66407279Y-67300105D02*
G01*
X66474015Y-67307583D01*
X66535793Y-67324034D01*
X66592612Y-67349457D01*
X66644471Y-67383854D01*
X66691372Y-67427224D01*
X66725499Y-67469631D01*
X66758815Y-67527190D01*
X66783802Y-67592027D01*
X66798262Y-67651616D01*
X66806938Y-67716259D01*
X66809830Y-67785956D01*
X66808800Y-67826984D01*
X66802503Y-67891476D01*
X66787390Y-67962452D01*
X66764035Y-68026430D01*
X66732436Y-68083409D01*
X66692594Y-68133391D01*
X66677616Y-68148364D01*
X66628804Y-68187487D01*
X66574175Y-68217916D01*
X66513729Y-68239651D01*
X66447465Y-68252692D01*
X66375383Y-68257039D01*
X66355759Y-68256738D01*
X66290550Y-68250953D01*
X66230746Y-68237805D01*
X66169017Y-68213762D01*
X66114349Y-68180102D01*
X66108019Y-68175233D01*
X66061914Y-68131899D01*
X66023861Y-68080780D01*
X65993860Y-68021875D01*
X65974214Y-67963948D01*
X66134193Y-67944408D01*
X66150752Y-67984356D01*
X66184712Y-68041078D01*
X66229448Y-68085764D01*
X66248847Y-68098517D01*
X66309588Y-68122727D01*
X66374467Y-68130033D01*
X66388594Y-68129729D01*
X66454824Y-68119085D01*
X66513720Y-68093235D01*
X66565282Y-68052180D01*
X66599209Y-68008808D01*
X66627250Y-67949751D01*
X66643173Y-67888132D01*
X66650157Y-67827172D01*
X65969940Y-67827172D01*
X65969330Y-67785040D01*
X65971142Y-67728954D01*
X65974376Y-67700165D01*
X66132362Y-67700165D01*
X66641608Y-67700165D01*
X66639553Y-67677250D01*
X66626596Y-67613783D01*
X66600245Y-67552556D01*
X66561313Y-67501107D01*
X66556739Y-67496524D01*
X66507353Y-67458695D01*
X66445385Y-67433888D01*
X66382100Y-67426613D01*
X66353397Y-67428073D01*
X66293803Y-67442032D01*
X66235688Y-67474876D01*
X66190675Y-67520036D01*
X66160006Y-67573417D01*
X66141171Y-67637284D01*
X66132362Y-67700165D01*
X65974376Y-67700165D01*
X65978507Y-67663396D01*
X65991536Y-67602891D01*
X66014648Y-67536957D01*
X66045918Y-67478299D01*
X66085345Y-67426919D01*
X66131098Y-67383653D01*
X66190444Y-67344489D01*
X66256220Y-67317510D01*
X66317714Y-67304083D01*
X66383932Y-67299607D01*
X66407279Y-67300105D01*
G37*
G36*
X65447566Y-68095839D02*
G01*
X65425279Y-68237500D01*
X65487103Y-68252154D01*
X65541905Y-68257039D01*
X65604121Y-68252605D01*
X65663541Y-68234974D01*
X65672575Y-68230172D01*
X65719849Y-68189648D01*
X65737909Y-68159036D01*
X65751277Y-68096421D01*
X65755642Y-68030900D01*
X65756533Y-67973717D01*
X65756533Y-67441268D01*
X65870106Y-67441268D01*
X65870106Y-67319146D01*
X65756533Y-67319146D01*
X65756533Y-67097496D01*
X65602965Y-67006516D01*
X65602965Y-67319146D01*
X65447566Y-67319146D01*
X65447566Y-67441268D01*
X65602965Y-67441268D01*
X65602965Y-67986235D01*
X65600167Y-68049607D01*
X65595027Y-68073246D01*
X65568466Y-68104082D01*
X65515343Y-68115378D01*
X65455321Y-68099331D01*
X65447566Y-68095839D01*
G37*
G36*
X84788293Y-64367437D02*
G01*
X84621598Y-64367437D01*
X84621598Y-65100165D01*
X84623111Y-65169066D01*
X84627651Y-65232428D01*
X84636774Y-65299351D01*
X84652244Y-65366604D01*
X84664645Y-65403637D01*
X84694318Y-65463526D01*
X84734906Y-65516798D01*
X84780148Y-65558596D01*
X84819740Y-65586514D01*
X84880132Y-65617369D01*
X84940145Y-65637135D01*
X85006849Y-65650152D01*
X85069349Y-65655937D01*
X85113747Y-65657039D01*
X85177782Y-65654882D01*
X85246792Y-65646911D01*
X85309666Y-65633068D01*
X85374009Y-65610056D01*
X85403175Y-65595673D01*
X85455343Y-65561555D01*
X85504454Y-65514962D01*
X85543421Y-65459674D01*
X85563764Y-65417986D01*
X85584735Y-65354502D01*
X85598169Y-65290219D01*
X85606033Y-65228632D01*
X85610527Y-65161055D01*
X85611697Y-65100165D01*
X85611697Y-64367437D01*
X85445307Y-64367437D01*
X85445307Y-65102302D01*
X85443846Y-65170667D01*
X85438598Y-65238602D01*
X85428133Y-65302028D01*
X85414776Y-65346851D01*
X85385739Y-65400675D01*
X85340426Y-65447647D01*
X85310057Y-65468056D01*
X85249593Y-65493916D01*
X85186096Y-65507136D01*
X85128401Y-65510493D01*
X85063193Y-65507531D01*
X84996504Y-65496586D01*
X84932667Y-65474204D01*
X84876633Y-65436433D01*
X84866451Y-65426229D01*
X84832257Y-65374385D01*
X84810351Y-65313087D01*
X84797529Y-65248708D01*
X84791041Y-65186713D01*
X84788370Y-65117130D01*
X84788293Y-65102302D01*
X84788293Y-64367437D01*
G37*
G36*
X83991756Y-65637500D02*
G01*
X84479631Y-64367437D01*
X84299197Y-64367437D01*
X83971912Y-65290980D01*
X83950772Y-65352380D01*
X83931662Y-65411558D01*
X83912807Y-65474706D01*
X83905966Y-65499197D01*
X83886753Y-65434129D01*
X83867932Y-65375568D01*
X83847663Y-65317007D01*
X83838189Y-65290980D01*
X83498080Y-64367437D01*
X83328026Y-64367437D01*
X83820786Y-65637500D01*
X83991756Y-65637500D01*
G37*
G36*
X82718030Y-64543292D02*
G01*
X82718030Y-64367437D01*
X82563546Y-64367437D01*
X82563546Y-64543292D01*
X82718030Y-64543292D01*
G37*
G36*
X82718030Y-65637500D02*
G01*
X82718030Y-64719146D01*
X82563546Y-64719146D01*
X82563546Y-65637500D01*
X82718030Y-65637500D01*
G37*
G36*
X82330600Y-65637500D02*
G01*
X82330600Y-64719146D01*
X82191687Y-64719146D01*
X82191687Y-64847984D01*
X82150875Y-64797559D01*
X82103773Y-64757567D01*
X82040872Y-64724095D01*
X81980143Y-64706707D01*
X81913124Y-64699752D01*
X81901343Y-64699607D01*
X81836584Y-64704545D01*
X81776259Y-64719359D01*
X81749912Y-64729527D01*
X81695992Y-64759062D01*
X81650826Y-64801690D01*
X81646414Y-64807684D01*
X81615618Y-64864107D01*
X81598176Y-64922479D01*
X81591506Y-64986570D01*
X81589703Y-65053911D01*
X81589628Y-65073604D01*
X81589628Y-65637500D01*
X81744112Y-65637500D01*
X81744112Y-65077573D01*
X81746645Y-65012915D01*
X81756935Y-64951172D01*
X81762124Y-64935301D01*
X81795612Y-64883662D01*
X81826238Y-64859891D01*
X81882878Y-64836933D01*
X81934010Y-64831498D01*
X81998632Y-64838966D01*
X82056905Y-64861369D01*
X82104370Y-64894696D01*
X82142205Y-64945316D01*
X82164275Y-65009890D01*
X82173594Y-65072570D01*
X82176116Y-65134970D01*
X82176116Y-65637500D01*
X82330600Y-65637500D01*
G37*
G36*
X80775994Y-64830277D02*
G01*
X80786446Y-64816047D01*
X80828963Y-64771727D01*
X80880713Y-64735938D01*
X80901284Y-64725472D01*
X80963561Y-64705603D01*
X81027564Y-64699607D01*
X81041562Y-64699840D01*
X81109009Y-64707979D01*
X81172222Y-64727746D01*
X81231202Y-64759141D01*
X81253236Y-64774840D01*
X81302102Y-64821226D01*
X81338486Y-64871692D01*
X81367672Y-64930416D01*
X81387574Y-64987871D01*
X81401790Y-65048493D01*
X81410319Y-65112282D01*
X81413162Y-65179239D01*
X81410767Y-65239147D01*
X81402161Y-65303857D01*
X81387296Y-65364560D01*
X81363093Y-65428061D01*
X81346352Y-65460673D01*
X81311184Y-65513513D01*
X81269544Y-65558818D01*
X81221432Y-65596589D01*
X81209915Y-65603909D01*
X81150291Y-65633426D01*
X81087269Y-65651136D01*
X81020847Y-65657039D01*
X80980061Y-65654935D01*
X80914791Y-65641129D01*
X80857293Y-65614438D01*
X80807567Y-65574862D01*
X80765614Y-65522400D01*
X80765614Y-65637500D01*
X80622426Y-65637500D01*
X80622426Y-65191756D01*
X80763171Y-65191756D01*
X80763240Y-65202375D01*
X80767598Y-65271918D01*
X80778734Y-65333074D01*
X80799762Y-65392699D01*
X80834002Y-65446685D01*
X80881252Y-65490638D01*
X80940115Y-65520184D01*
X81006193Y-65530033D01*
X81012445Y-65529947D01*
X81077791Y-65517754D01*
X81131750Y-65488762D01*
X81180521Y-65442716D01*
X81189468Y-65431452D01*
X81222586Y-65372115D01*
X81242211Y-65307491D01*
X81251807Y-65241772D01*
X81254405Y-65178628D01*
X81254135Y-65156190D01*
X81250092Y-65093468D01*
X81239244Y-65029001D01*
X81218760Y-64966810D01*
X81185406Y-64911488D01*
X81181041Y-64906266D01*
X81133755Y-64863166D01*
X81074095Y-64834902D01*
X81012909Y-64826613D01*
X80999873Y-64826958D01*
X80938592Y-64839021D01*
X80883810Y-64868317D01*
X80835528Y-64914846D01*
X80818569Y-64938474D01*
X80791436Y-64995146D01*
X80775113Y-65055033D01*
X80765715Y-65124533D01*
X80763171Y-65191756D01*
X80622426Y-65191756D01*
X80622426Y-64367437D01*
X80775994Y-64367437D01*
X80775994Y-64830277D01*
G37*
G36*
X80033029Y-64700105D02*
G01*
X80099766Y-64707583D01*
X80161543Y-64724034D01*
X80218362Y-64749457D01*
X80270222Y-64783854D01*
X80317123Y-64827224D01*
X80351249Y-64869631D01*
X80384565Y-64927190D01*
X80409552Y-64992027D01*
X80424012Y-65051616D01*
X80432688Y-65116259D01*
X80435580Y-65185956D01*
X80434550Y-65226984D01*
X80428253Y-65291476D01*
X80413141Y-65362452D01*
X80389785Y-65426430D01*
X80358186Y-65483409D01*
X80318344Y-65533391D01*
X80303366Y-65548364D01*
X80254555Y-65587487D01*
X80199925Y-65617916D01*
X80139479Y-65639651D01*
X80073215Y-65652692D01*
X80001133Y-65657039D01*
X79981509Y-65656738D01*
X79916300Y-65650953D01*
X79856496Y-65637805D01*
X79794767Y-65613762D01*
X79740099Y-65580102D01*
X79733770Y-65575233D01*
X79687664Y-65531899D01*
X79649611Y-65480780D01*
X79619610Y-65421875D01*
X79599965Y-65363948D01*
X79759944Y-65344408D01*
X79776502Y-65384356D01*
X79810462Y-65441078D01*
X79855198Y-65485764D01*
X79874597Y-65498517D01*
X79935338Y-65522727D01*
X80000218Y-65530033D01*
X80014344Y-65529729D01*
X80080574Y-65519085D01*
X80139471Y-65493235D01*
X80191032Y-65452180D01*
X80224959Y-65408808D01*
X80253000Y-65349751D01*
X80268923Y-65288132D01*
X80275907Y-65227172D01*
X79595690Y-65227172D01*
X79595080Y-65185040D01*
X79596892Y-65128954D01*
X79600126Y-65100165D01*
X79758112Y-65100165D01*
X80267358Y-65100165D01*
X80265304Y-65077250D01*
X80252346Y-65013783D01*
X80225996Y-64952556D01*
X80187063Y-64901107D01*
X80182489Y-64896524D01*
X80133104Y-64858695D01*
X80071135Y-64833888D01*
X80007850Y-64826613D01*
X79979147Y-64828073D01*
X79919553Y-64842032D01*
X79861438Y-64874876D01*
X79816425Y-64920036D01*
X79785756Y-64973417D01*
X79766921Y-65037284D01*
X79758112Y-65100165D01*
X79600126Y-65100165D01*
X79604257Y-65063396D01*
X79617286Y-65002891D01*
X79640398Y-64936957D01*
X79671668Y-64878299D01*
X79711095Y-64826919D01*
X79756848Y-64783653D01*
X79816195Y-64744489D01*
X79881970Y-64717510D01*
X79943465Y-64704083D01*
X80009682Y-64699607D01*
X80033029Y-64700105D01*
G37*
G36*
X79513869Y-65637500D02*
G01*
X79180783Y-65160310D01*
X79488834Y-64719146D01*
X79295577Y-64719146D01*
X79155748Y-64934385D01*
X79122179Y-64987556D01*
X79092245Y-65037273D01*
X79058095Y-64986634D01*
X79022636Y-64936217D01*
X78869068Y-64719146D01*
X78684359Y-64719146D01*
X78999433Y-65151456D01*
X78660240Y-65637500D01*
X78850139Y-65637500D01*
X79037290Y-65352041D01*
X79087055Y-65275104D01*
X79326718Y-65637500D01*
X79513869Y-65637500D01*
G37*
G36*
X85633068Y-66643292D02*
G01*
X85633068Y-66467437D01*
X85478585Y-66467437D01*
X85478585Y-66643292D01*
X85633068Y-66643292D01*
G37*
G36*
X85633068Y-67737500D02*
G01*
X85633068Y-66819146D01*
X85478585Y-66819146D01*
X85478585Y-67737500D01*
X85633068Y-67737500D01*
G37*
G36*
X85245638Y-67737500D02*
G01*
X85245638Y-66819146D01*
X85106725Y-66819146D01*
X85106725Y-66947984D01*
X85065913Y-66897559D01*
X85018812Y-66857567D01*
X84955911Y-66824095D01*
X84895181Y-66806707D01*
X84828163Y-66799752D01*
X84816381Y-66799607D01*
X84751622Y-66804545D01*
X84691297Y-66819359D01*
X84664951Y-66829527D01*
X84611030Y-66859062D01*
X84565864Y-66901690D01*
X84561453Y-66907684D01*
X84530656Y-66964107D01*
X84513215Y-67022479D01*
X84506545Y-67086570D01*
X84504741Y-67153911D01*
X84504666Y-67173604D01*
X84504666Y-67737500D01*
X84659150Y-67737500D01*
X84659150Y-67177573D01*
X84661683Y-67112915D01*
X84671974Y-67051172D01*
X84677163Y-67035301D01*
X84710651Y-66983662D01*
X84741277Y-66959891D01*
X84797916Y-66936933D01*
X84849049Y-66931498D01*
X84913670Y-66938966D01*
X84971943Y-66961369D01*
X85019408Y-66994696D01*
X85057243Y-67045316D01*
X85079313Y-67109890D01*
X85088632Y-67172570D01*
X85091154Y-67234970D01*
X85091154Y-67737500D01*
X85245638Y-67737500D01*
G37*
G36*
X83691032Y-66930277D02*
G01*
X83701484Y-66916047D01*
X83744001Y-66871727D01*
X83795751Y-66835938D01*
X83816322Y-66825472D01*
X83878599Y-66805603D01*
X83942602Y-66799607D01*
X83956600Y-66799840D01*
X84024047Y-66807979D01*
X84087260Y-66827746D01*
X84146240Y-66859141D01*
X84168274Y-66874840D01*
X84217141Y-66921226D01*
X84253524Y-66971692D01*
X84282711Y-67030416D01*
X84302613Y-67087871D01*
X84316828Y-67148493D01*
X84325358Y-67212282D01*
X84328201Y-67279239D01*
X84325805Y-67339147D01*
X84317199Y-67403857D01*
X84302335Y-67464560D01*
X84278131Y-67528061D01*
X84261390Y-67560673D01*
X84226222Y-67613513D01*
X84184582Y-67658818D01*
X84136470Y-67696589D01*
X84124953Y-67703909D01*
X84065330Y-67733426D01*
X84002307Y-67751136D01*
X83935886Y-67757039D01*
X83895099Y-67754935D01*
X83829829Y-67741129D01*
X83772331Y-67714438D01*
X83722606Y-67674862D01*
X83680652Y-67622400D01*
X83680652Y-67737500D01*
X83537465Y-67737500D01*
X83537465Y-67291756D01*
X83678210Y-67291756D01*
X83678279Y-67302375D01*
X83682636Y-67371918D01*
X83693773Y-67433074D01*
X83714801Y-67492699D01*
X83749040Y-67546685D01*
X83796290Y-67590638D01*
X83855153Y-67620184D01*
X83921231Y-67630033D01*
X83927483Y-67629947D01*
X83992830Y-67617754D01*
X84046788Y-67588762D01*
X84095560Y-67542716D01*
X84104506Y-67531452D01*
X84137624Y-67472115D01*
X84157249Y-67407491D01*
X84166846Y-67341772D01*
X84169443Y-67278628D01*
X84169173Y-67256190D01*
X84165131Y-67193468D01*
X84154282Y-67129001D01*
X84133798Y-67066810D01*
X84100444Y-67011488D01*
X84096080Y-67006266D01*
X84048794Y-66963166D01*
X83989134Y-66934902D01*
X83927948Y-66926613D01*
X83914912Y-66926958D01*
X83853630Y-66939021D01*
X83798849Y-66968317D01*
X83750566Y-67014846D01*
X83733608Y-67038474D01*
X83706474Y-67095146D01*
X83690151Y-67155033D01*
X83680753Y-67224533D01*
X83678210Y-67291756D01*
X83537465Y-67291756D01*
X83537465Y-66467437D01*
X83691032Y-66467437D01*
X83691032Y-66930277D01*
G37*
G36*
X83298107Y-66643292D02*
G01*
X83298107Y-66467437D01*
X83143623Y-66467437D01*
X83143623Y-66643292D01*
X83298107Y-66643292D01*
G37*
G36*
X83298107Y-67737500D02*
G01*
X83298107Y-66819146D01*
X83143623Y-66819146D01*
X83143623Y-67737500D01*
X83298107Y-67737500D01*
G37*
G36*
X82315640Y-67405329D02*
G01*
X82163599Y-67425174D01*
X82178262Y-67490066D01*
X82200347Y-67548501D01*
X82234675Y-67607377D01*
X82278696Y-67657819D01*
X82291215Y-67669112D01*
X82345445Y-67707580D01*
X82405552Y-67735057D01*
X82471535Y-67751543D01*
X82534092Y-67756953D01*
X82543396Y-67757039D01*
X82611002Y-67752724D01*
X82673456Y-67739780D01*
X82730757Y-67718206D01*
X82791098Y-67682129D01*
X82837237Y-67641858D01*
X82844426Y-67634307D01*
X82883023Y-67584422D01*
X82913634Y-67527045D01*
X82936260Y-67462177D01*
X82949015Y-67402396D01*
X82956224Y-67337413D01*
X82957998Y-67281681D01*
X82955661Y-67218548D01*
X82947265Y-67150762D01*
X82932763Y-67087630D01*
X82912155Y-67029155D01*
X82909150Y-67022173D01*
X82877492Y-66963910D01*
X82837816Y-66914486D01*
X82790123Y-66873900D01*
X82760162Y-66855172D01*
X82702457Y-66828312D01*
X82641999Y-66810243D01*
X82578787Y-66800964D01*
X82542480Y-66799607D01*
X82480032Y-66803215D01*
X82415031Y-66816177D01*
X82356823Y-66838564D01*
X82299459Y-66875017D01*
X82251607Y-66922434D01*
X82214526Y-66979849D01*
X82190607Y-67039279D01*
X82178253Y-67089035D01*
X82328463Y-67112238D01*
X82347261Y-67054087D01*
X82379525Y-66999409D01*
X82404788Y-66973325D01*
X82460767Y-66939796D01*
X82522093Y-66927024D01*
X82536374Y-66926613D01*
X82598670Y-66933279D01*
X82659731Y-66956320D01*
X82712205Y-66995818D01*
X82726273Y-67010877D01*
X82761545Y-67066028D01*
X82783208Y-67128066D01*
X82794680Y-67192399D01*
X82798956Y-67255007D01*
X82799241Y-67277407D01*
X82796761Y-67343235D01*
X82787601Y-67411053D01*
X82768868Y-67476717D01*
X82737256Y-67535490D01*
X82728715Y-67546379D01*
X82680463Y-67590493D01*
X82623863Y-67618269D01*
X82558914Y-67629706D01*
X82544923Y-67630033D01*
X82480938Y-67622305D01*
X82421214Y-67596491D01*
X82393187Y-67575078D01*
X82353660Y-67525304D01*
X82328439Y-67465044D01*
X82315640Y-67405329D01*
G37*
G36*
X81665309Y-66799730D02*
G01*
X81728353Y-66803323D01*
X81793135Y-66813150D01*
X81857990Y-66831053D01*
X81894991Y-66845963D01*
X81949108Y-66877505D01*
X81994460Y-66920202D01*
X82018830Y-66955533D01*
X82044862Y-67011583D01*
X82062238Y-67071938D01*
X81911113Y-67092698D01*
X81904434Y-67070373D01*
X81876930Y-67009940D01*
X81834176Y-66963250D01*
X81796162Y-66943930D01*
X81735827Y-66930191D01*
X81673281Y-66926613D01*
X81612072Y-66930743D01*
X81549657Y-66947007D01*
X81497121Y-66978820D01*
X81484544Y-66992191D01*
X81459602Y-67048491D01*
X81453463Y-67111017D01*
X81454073Y-67151317D01*
X81465526Y-67155176D01*
X81526596Y-67171716D01*
X81593977Y-67185283D01*
X81663047Y-67196277D01*
X81729762Y-67205050D01*
X81741068Y-67206466D01*
X81805718Y-67215842D01*
X81867149Y-67228558D01*
X81922502Y-67248496D01*
X81978585Y-67279849D01*
X82023083Y-67319081D01*
X82058269Y-67369609D01*
X82060147Y-67373112D01*
X82082091Y-67432332D01*
X82088799Y-67493257D01*
X82088484Y-67507521D01*
X82077465Y-67574014D01*
X82050703Y-67632457D01*
X82008199Y-67682850D01*
X81963415Y-67715308D01*
X81902678Y-67740738D01*
X81839485Y-67753489D01*
X81777084Y-67757039D01*
X81732319Y-67755131D01*
X81667891Y-67745113D01*
X81606725Y-67726509D01*
X81596741Y-67722523D01*
X81540974Y-67694548D01*
X81489024Y-67660225D01*
X81441250Y-67622095D01*
X81432042Y-67676642D01*
X81410415Y-67737500D01*
X81248909Y-67737500D01*
X81272160Y-67686977D01*
X81288293Y-67627285D01*
X81290583Y-67610446D01*
X81294972Y-67546558D01*
X81296909Y-67483317D01*
X81297824Y-67416971D01*
X81298063Y-67353122D01*
X81298063Y-67330835D01*
X81454073Y-67330835D01*
X81454684Y-67361941D01*
X81461139Y-67426498D01*
X81479108Y-67487151D01*
X81490218Y-67507909D01*
X81530924Y-67558499D01*
X81581385Y-67595533D01*
X81612669Y-67610879D01*
X81675886Y-67629379D01*
X81740143Y-67634918D01*
X81761986Y-67634264D01*
X81823687Y-67623113D01*
X81877224Y-67593091D01*
X81910752Y-67549250D01*
X81923935Y-67488372D01*
X81923184Y-67473184D01*
X81902564Y-67413572D01*
X81892233Y-67399654D01*
X81841503Y-67362587D01*
X81830713Y-67358289D01*
X81770186Y-67342146D01*
X81706559Y-67331140D01*
X81636979Y-67320240D01*
X81575435Y-67308375D01*
X81514937Y-67293635D01*
X81454073Y-67273438D01*
X81454073Y-67330835D01*
X81298063Y-67330835D01*
X81298063Y-67145821D01*
X81298093Y-67133133D01*
X81299524Y-67067474D01*
X81305696Y-67002634D01*
X81321691Y-66950800D01*
X81353934Y-66896693D01*
X81356109Y-66894093D01*
X81404670Y-66854179D01*
X81461095Y-66827390D01*
X81465698Y-66825680D01*
X81527587Y-66809401D01*
X81588540Y-66801805D01*
X81650689Y-66799607D01*
X81665309Y-66799730D01*
G37*
G36*
X80725619Y-67595839D02*
G01*
X80703332Y-67737500D01*
X80765156Y-67752154D01*
X80819958Y-67757039D01*
X80882174Y-67752605D01*
X80941594Y-67734974D01*
X80950628Y-67730172D01*
X80997902Y-67689648D01*
X81015963Y-67659036D01*
X81029330Y-67596421D01*
X81033695Y-67530900D01*
X81034586Y-67473717D01*
X81034586Y-66941268D01*
X81148159Y-66941268D01*
X81148159Y-66819146D01*
X81034586Y-66819146D01*
X81034586Y-66597496D01*
X80881018Y-66506516D01*
X80881018Y-66819146D01*
X80725619Y-66819146D01*
X80725619Y-66941268D01*
X80881018Y-66941268D01*
X80881018Y-67486235D01*
X80878220Y-67549607D01*
X80873080Y-67573246D01*
X80846519Y-67604082D01*
X80793396Y-67615378D01*
X80733374Y-67599331D01*
X80725619Y-67595839D01*
G37*
G36*
X80248386Y-66801195D02*
G01*
X80317094Y-66811620D01*
X80380863Y-66831775D01*
X80439695Y-66861659D01*
X80493588Y-66901273D01*
X80502266Y-66909072D01*
X80548548Y-66961265D01*
X80584913Y-67022710D01*
X80607640Y-67080981D01*
X80623481Y-67145678D01*
X80632434Y-67216800D01*
X80634638Y-67278323D01*
X80632792Y-67334632D01*
X80625292Y-67400243D01*
X80612023Y-67460546D01*
X80588485Y-67525905D01*
X80556639Y-67583622D01*
X80516486Y-67633696D01*
X80501431Y-67648632D01*
X80452830Y-67687659D01*
X80399078Y-67718013D01*
X80340173Y-67739694D01*
X80276117Y-67752703D01*
X80206908Y-67757039D01*
X80170058Y-67755675D01*
X80106021Y-67746345D01*
X80044929Y-67728176D01*
X79986784Y-67701168D01*
X79956382Y-67682510D01*
X79907594Y-67643366D01*
X79866437Y-67597073D01*
X79832911Y-67543632D01*
X79820532Y-67517113D01*
X79800726Y-67457007D01*
X79788811Y-67396681D01*
X79781951Y-67329138D01*
X79780308Y-67272827D01*
X79939157Y-67272827D01*
X79939455Y-67295059D01*
X79943927Y-67357416D01*
X79955928Y-67421945D01*
X79978587Y-67484852D01*
X80015483Y-67541800D01*
X80030135Y-67557568D01*
X80083897Y-67598927D01*
X80145232Y-67623053D01*
X80206908Y-67630033D01*
X80228312Y-67629263D01*
X80294620Y-67615572D01*
X80353177Y-67584767D01*
X80399249Y-67542411D01*
X80412890Y-67525146D01*
X80442704Y-67471498D01*
X80462978Y-67406784D01*
X80472892Y-67341080D01*
X80475575Y-67278018D01*
X80475277Y-67256271D01*
X80470805Y-67195223D01*
X80458804Y-67131950D01*
X80436145Y-67070122D01*
X80399249Y-67013930D01*
X80384589Y-66998326D01*
X80330684Y-66957396D01*
X80269027Y-66933520D01*
X80206908Y-66926613D01*
X80185829Y-66927386D01*
X80120332Y-66941125D01*
X80062169Y-66972037D01*
X80016093Y-67014541D01*
X80006777Y-67025818D01*
X79972291Y-67084594D01*
X79951854Y-67147868D01*
X79941862Y-67211748D01*
X79939157Y-67272827D01*
X79780308Y-67272827D01*
X79780094Y-67265500D01*
X79781143Y-67225402D01*
X79787555Y-67162269D01*
X79802943Y-67092610D01*
X79826724Y-67029605D01*
X79858899Y-66973256D01*
X79899467Y-66923560D01*
X79914657Y-66908550D01*
X79963448Y-66869331D01*
X80017068Y-66838827D01*
X80075518Y-66817038D01*
X80138798Y-66803965D01*
X80206908Y-66799607D01*
X80248386Y-66801195D01*
G37*
G36*
X79605460Y-67737500D02*
G01*
X79605460Y-66819146D01*
X79466242Y-66819146D01*
X79466242Y-66959891D01*
X79433845Y-66905169D01*
X79394136Y-66853554D01*
X79368239Y-66830748D01*
X79311353Y-66804746D01*
X79268710Y-66799607D01*
X79204804Y-66807870D01*
X79145098Y-66830167D01*
X79109952Y-66849677D01*
X79163075Y-66994085D01*
X79219862Y-66969127D01*
X79276648Y-66960807D01*
X79338696Y-66974087D01*
X79367629Y-66991643D01*
X79408940Y-67039108D01*
X79425026Y-67076517D01*
X79440839Y-67140760D01*
X79448924Y-67203496D01*
X79450976Y-67257562D01*
X79450976Y-67737500D01*
X79605460Y-67737500D01*
G37*
X83839428Y-54787700D02*
X82696571Y-54787700D01*
X83267999Y-55359128D02*
X83267999Y-54216271D01*
D11*
%TO.C,BT1*%
X84300000Y-52650000D02*
X85450000Y-52650000D01*
X84300000Y-53150000D02*
X84300000Y-52650000D01*
X84300000Y-56450000D02*
X84300000Y-56950000D01*
X84300000Y-56950000D02*
X85450000Y-56950000D01*
X85450000Y-53150000D02*
X85450000Y-52650000D01*
X85450000Y-56450000D02*
X85450000Y-56950000D01*
X64750000Y-53450000D02*
G75*
G02*
X84710000Y-52650000I10050242J-1352544D01*
G01*
X84710000Y-56950000D02*
G75*
G02*
X64750000Y-56150000I-9909758J2152544D01*
G01*
%TD*%
M02*
